# File created by Blade
# Date/Time:  Thu Jan 22 19:08:58 2015
# Frame Rate: 120.000 fps
#------------------------------------------------------
:FULLY-SPECIFIED
:DEGREES
2860
root -2.595932 33.050436 -1.045918 6.564512 -0.939234 2.541900
RightUpLeg -1.272814 -10.318900 -2.758750
RightLeg -0.297985 -0.000000 0.000000
RightFoot -11.242266 -4.954106 4.606567
RightToeBase 5.936272 -0.000000 -0.000000
LeftUpLeg -1.877382 5.263618 3.343501
LeftLeg 1.551671 -0.000000 -0.000000
LeftFoot -9.601810 -0.335164 -11.409874
LeftToeBase 8.406913 -0.000000 -0.000000
Spine -11.295232 -0.963116 -2.385220
RightShoulder -3.856470 6.325113 -33.117171
RightArm 65.582714 4.138554 53.202121
RightForeArm -11.820847 -0.000000 12.096158
RightHand 8.972998 -0.000000 11.443235
RightHandThumb1 -24.326973 -0.000000 -32.862282
LeftShoulder -11.155698 -10.265944 34.996428
LeftArm 62.814881 -0.241133 -55.178616
LeftForeArm 22.569761 -0.000000 5.099329
LeftHand -3.095966 -0.000000 -11.474980
LeftHandThumb1 -26.253704 0.000000 33.147579
Head 3.218411 7.437269 1.811588
2861
root -2.598418 33.050109 -1.047406 6.557835 -0.909211 2.543693
RightUpLeg -1.266809 -10.332061 -2.755556
RightLeg -0.288503 -0.000000 0.000000
RightFoot -11.264618 -4.962595 4.603840
RightToeBase 5.971862 -0.000000 -0.000000
LeftUpLeg -1.876715 5.250005 3.349173
LeftLeg 1.545188 -0.000000 -0.000000
LeftFoot -9.593253 -0.343489 -11.404101
LeftToeBase 8.403529 -0.000000 -0.000000
Spine -11.316164 -0.963834 -2.400068
RightShoulder -3.707290 6.516400 -33.148748
RightArm 65.890598 3.858498 53.551801
RightForeArm -12.101919 -0.000000 12.166491
RightHand 8.765101 -0.000000 11.681365
RightHandThumb1 -24.326973 -0.000000 -32.862282
LeftShoulder -11.046554 -10.457702 35.017658
LeftArm 63.160828 0.140582 -55.370055
LeftForeArm 22.644963 -0.000000 5.149263
LeftHand -3.086197 0.000000 -11.461477
LeftHandThumb1 -26.253704 0.000000 33.147579
Head 3.324010 7.371298 1.805316
2862
root -2.600630 33.049722 -1.049649 6.559893 -0.877529 2.545975
RightUpLeg -1.266037 -10.345438 -2.750364
RightLeg -0.288246 -0.000000 0.000000
RightFoot -11.270904 -4.980009 4.623572
RightToeBase 5.944894 -0.000000 -0.000000
LeftUpLeg -1.887344 5.230830 3.353175
LeftLeg 1.539897 -0.000000 -0.000000
LeftFoot -9.579240 -0.350063 -11.405044
LeftToeBase 8.371645 -0.000000 -0.000000
Spine -11.315402 -0.911666 -2.460381
RightShoulder -3.686765 6.612497 -33.101942
RightArm 66.327954 3.576528 53.787414
RightForeArm -12.290980 0.000000 12.133114
RightHand 8.962201 -0.000000 11.446764
RightHandThumb1 -24.326973 -0.000000 -32.862282
LeftShoulder -10.939524 -10.716793 35.117847
LeftArm 63.481608 0.505085 -55.736394
LeftForeArm 22.987269 -0.000000 5.248173
LeftHand -3.076876 -0.000000 -11.535079
LeftHandThumb1 -26.253704 0.000000 33.147579
Head 3.335387 7.267275 1.887046
2863
root -2.601108 33.048874 -1.052007 6.553843 -0.843992 2.548845
RightUpLeg -1.253543 -10.370336 -2.750634
RightLeg -0.294688 -0.000000 0.000000
RightFoot -11.269454 -4.979021 4.615330
RightToeBase 5.930689 -0.000000 -0.000000
LeftUpLeg -1.888151 5.199458 3.353920
LeftLeg 1.534828 -0.000000 -0.000000
LeftFoot -9.585307 -0.352285 -11.411877
LeftToeBase 8.429990 -0.000000 -0.000000
Spine -11.362609 -0.961725 -2.441377
RightShoulder -3.439175 6.720977 -33.138084
RightArm 66.707718 3.327583 53.971007
RightForeArm -12.348120 -0.000000 12.153006
RightHand 8.687347 -0.000000 11.704044
RightHandThumb1 -24.326973 -0.000000 -32.862282
LeftShoulder -10.790712 -10.877146 35.112019
LeftArm 63.741758 0.860095 -55.859752
LeftForeArm 23.054544 -0.000000 5.333107
LeftHand -3.069590 -0.000000 -11.522170
LeftHandThumb1 -26.253704 0.000000 33.147579
Head 3.523878 7.260964 1.824072
2864
root -2.600135 33.047763 -1.053367 6.553833 -0.813038 2.547641
RightUpLeg -1.243571 -10.417155 -2.751035
RightLeg -0.306868 -0.000000 0.000000
RightFoot -11.285193 -4.951712 4.613221
RightToeBase 5.948188 -0.000000 -0.000000
LeftUpLeg -1.889291 5.179478 3.353791
LeftLeg 1.520611 -0.000000 -0.000000
LeftFoot -9.588677 -0.341834 -11.381748
LeftToeBase 8.417207 -0.000000 -0.000000
Spine -11.400273 -1.068154 -2.379941
RightShoulder -3.185034 6.958816 -33.236065
RightArm 67.009873 3.013322 54.228789
RightForeArm -12.531295 0.000000 12.195447
RightHand 8.675790 -0.000000 11.515747
RightHandThumb1 -24.326973 -0.000000 -32.862282
LeftShoulder -10.735774 -10.999740 35.083984
LeftArm 64.044004 1.218078 -56.014441
LeftForeArm 23.025286 0.000000 5.394303
LeftHand -3.222139 -0.000000 -11.455868
LeftHandThumb1 -26.253704 0.000000 33.147579
Head 3.660012 7.341638 1.700862
2865
root -2.604564 33.047082 -1.056305 6.565359 -0.790058 2.544397
RightUpLeg -1.245783 -10.423248 -2.735184
RightLeg -0.324363 -0.000000 0.000000
RightFoot -11.280564 -4.967042 4.614891
RightToeBase 6.024596 -0.000000 -0.000000
LeftUpLeg -1.905446 5.190385 3.367213
LeftLeg 1.509853 -0.000000 -0.000000
LeftFoot -9.573306 -0.381048 -11.383087
LeftToeBase 8.413894 -0.000000 -0.000000
Spine -11.400259 -0.998635 -2.444808
RightShoulder -3.154085 7.180444 -33.218247
RightArm 67.274418 2.642528 54.360777
RightForeArm -12.600810 -0.000000 12.229798
RightHand 8.649577 -0.000000 11.326359
RightHandThumb1 -24.326973 -0.000000 -32.862282
LeftShoulder -10.635052 -11.258449 35.178265
LeftArm 64.417653 1.612496 -56.276172
LeftForeArm 23.148534 0.000000 5.372476
LeftHand -3.134271 -0.000000 -11.292831
LeftHandThumb1 -26.253704 0.000000 33.147579
Head 3.647411 7.219843 1.790429
2866
root -2.607252 33.046521 -1.059089 6.579382 -0.762737 2.545227
RightUpLeg -1.258352 -10.459177 -2.727516
RightLeg -0.326450 -0.000000 0.000000
RightFoot -11.282048 -4.950805 4.618250
RightToeBase 5.937021 -0.000000 -0.000000
LeftUpLeg -1.923732 5.173968 3.373704
LeftLeg 1.498039 -0.000000 -0.000000
LeftFoot -9.562847 -0.397389 -11.382337
LeftToeBase 8.436762 -0.000000 -0.000000
Spine -11.410250 -0.965337 -2.486195
RightShoulder -3.115434 7.374979 -33.230367
RightArm 67.595776 2.265391 54.519873
RightForeArm -12.738412 -0.000000 12.257420
RightHand 8.552545 -0.000000 11.282212
RightHandThumb1 -24.326973 -0.000000 -32.862282
LeftShoulder -10.549807 -11.464954 35.252134
LeftArm 64.764303 1.966290 -56.567808
LeftForeArm 23.275703 0.000000 5.440712
LeftHand -3.179781 -0.000000 -11.355391
LeftHandThumb1 -26.253704 0.000000 33.147579
Head 3.653363 7.155687 1.831258
2867
root -2.606357 33.045725 -1.060783 6.582464 -0.720965 2.548933
RightUpLeg -1.242903 -10.510040 -2.729183
RightLeg -0.355036 -0.000000 0.000000
RightFoot -11.273535 -4.935792 4.618422
RightToeBase 5.888451 -0.000000 -0.000000
LeftUpLeg -1.930736 5.139987 3.371345
LeftLeg 1.481892 -0.000000 -0.000000
LeftFoot -9.553501 -0.398592 -11.371087
LeftToeBase 8.411200 -0.000000 -0.000000
Spine -11.427525 -0.991575 -2.491996
RightShoulder -2.957807 7.608485 -33.253365
RightArm 67.854060 1.982846 54.783641
RightForeArm -12.853127 0.000000 12.290300
RightHand 8.345367 0.000000 11.155731
RightHandThumb1 -24.326973 -0.000000 -32.862282
LeftShoulder -10.461545 -11.617799 35.279887
LeftArm 65.119620 2.298973 -56.806072
LeftForeArm 23.280216 -0.000000 5.476645
LeftHand -3.197030 -0.000000 -11.286412
LeftHandThumb1 -26.253704 0.000000 33.147579
Head 3.719158 7.130614 1.831840
2868
root -2.606378 33.044912 -1.065172 6.597307 -0.697542 2.557127
RightUpLeg -1.260611 -10.528043 -2.733360
RightLeg -0.354358 -0.000000 0.000000
RightFoot -11.284199 -4.929148 4.618008
RightToeBase 5.940964 -0.000000 -0.000000
LeftUpLeg -1.960953 5.139204 3.362912
LeftLeg 1.488153 -0.000000 -0.000000
LeftFoot -9.553486 -0.418761 -11.381154
LeftToeBase 8.447760 -0.000000 -0.000000
Spine -11.428403 -1.037856 -2.488663
RightShoulder -2.838531 7.826307 -33.292588
RightArm 68.193990 1.655968 54.969309
RightForeArm -12.838586 -0.000000 12.309668
RightHand 8.528179 -0.000000 11.024278
RightHandThumb1 -24.326973 -0.000000 -32.862282
LeftShoulder -10.429333 -11.806268 35.303939
LeftArm 65.419852 2.615157 -57.063653
LeftForeArm 23.426436 0.000000 5.545014
LeftHand -3.150378 0.000000 -11.168315
LeftHandThumb1 -26.253704 0.000000 33.147579
Head 3.709932 7.140026 1.793705
2869
root -2.608229 33.043685 -1.068354 6.617978 -0.665785 2.555200
RightUpLeg -1.280736 -10.553909 -2.722211
RightLeg -0.353854 -0.000000 0.000000
RightFoot -11.291550 -4.926787 4.612141
RightToeBase 5.931368 -0.000000 -0.000000
LeftUpLeg -1.990099 5.120282 3.370057
LeftLeg 1.481375 -0.000000 -0.000000
LeftFoot -9.550989 -0.433817 -11.374752
LeftToeBase 8.420169 -0.000000 -0.000000
Spine -11.470905 -1.075765 -2.471724
RightShoulder -2.645482 8.048004 -33.346503
RightArm 68.440938 1.372039 55.210622
RightForeArm -12.842331 -0.000000 12.351807
RightHand 8.400939 -0.000000 11.207003
RightHandThumb1 -24.326973 -0.000000 -32.862282
LeftShoulder -10.345820 -11.926922 35.320402
LeftArm 65.749677 2.829756 -57.529115
LeftForeArm 23.655812 -0.000000 5.574578
LeftHand -3.188713 -0.000000 -11.141620
LeftHandThumb1 -26.253704 0.000000 33.147579
Head 3.795659 7.154757 1.745953
